<?xml version="1.0" encoding="UTF-8" standalone="no"?>
<!-- Created with Inkscape (http://www.inkscape.org/) -->

<svg
   xmlns:dc="http://purl.org/dc/elements/1.1/"
   xmlns:cc="http://creativecommons.org/ns#"
   xmlns:rdf="http://www.w3.org/1999/02/22-rdf-syntax-ns#"
   xmlns:svg="http://www.w3.org/2000/svg"
   xmlns="http://www.w3.org/2000/svg"
   xmlns:xlink="http://www.w3.org/1999/xlink"
   xmlns:sodipodi="http://sodipodi.sourceforge.net/DTD/sodipodi-0.dtd"
   xmlns:inkscape="http://www.inkscape.org/namespaces/inkscape"
   width="210mm"
   height="297mm"
   viewBox="0 0 210 297"
   version="1.1"
   id="svg959"
   inkscape:version="0.92.3 (2405546, 2018-03-11)"
   sodipodi:docname="title-nb-notes.svg">
  <defs
     id="defs953">
    <linearGradient
       inkscape:collect="always"
       id="linearGradient1514">
      <stop
         style="stop-color:#000000;stop-opacity:1;"
         offset="0"
         id="stop1510" />
      <stop
         style="stop-color:#000000;stop-opacity:1"
         offset="1"
         id="stop1512" />
    </linearGradient>
    <linearGradient
       inkscape:collect="always"
       xlink:href="#linearGradient1514"
       id="linearGradient1518"
       gradientUnits="userSpaceOnUse"
       x1="14.363093"
       y1="7.4702377"
       x2="227.59674"
       y2="60.350266"
       gradientTransform="matrix(1.1546661,0,0,0.88209497,-15.978597,-5.9971662)" />
  </defs>
  <sodipodi:namedview
     id="base"
     pagecolor="#ffffff"
     bordercolor="#666666"
     borderopacity="1.0"
     inkscape:pageopacity="0.0"
     inkscape:pageshadow="2"
     inkscape:zoom="0.98994949"
     inkscape:cx="332.99587"
     inkscape:cy="872.24325"
     inkscape:document-units="mm"
     inkscape:current-layer="layer1"
     showgrid="false"
     inkscape:window-width="1920"
     inkscape:window-height="1009"
     inkscape:window-x="-8"
     inkscape:window-y="-8"
     inkscape:window-maximized="1" />
  <metadata
     id="metadata956">
    <rdf:RDF>
      <cc:Work
         rdf:about="">
        <dc:format>image/svg+xml</dc:format>
        <dc:type
           rdf:resource="http://purl.org/dc/dcmitype/StillImage" />
        <dc:title />
      </cc:Work>
    </rdf:RDF>
  </metadata>
  <g
     inkscape:label="Calque 1"
     inkscape:groupmode="layer"
     id="layer1">
    <g
       id="g1008"
       inkscape:export-filename="C:\Users\vdegu\Bureau\JB\nb-notes\_static\Images\Title-nb-notes.png"
       inkscape:export-xdpi="500"
       inkscape:export-ydpi="500">
      <rect
         inkscape:export-ydpi="500"
         inkscape:export-xdpi="500"
         y="0.59229285"
         x="0.6059795"
         height="40.009308"
         width="209.48943"
         id="rect1504"
         style="opacity:1;fill:#000000;fill-opacity:1;stroke:url(#linearGradient1518);stroke-width:0.26755688;stroke-miterlimit:4;stroke-dasharray:none;stroke-dashoffset:0;stroke-opacity:1" />
      <g
         transform="translate(0,-0.45274326)"
         id="g982">
        <text
           xml:space="preserve"
           style="font-style:normal;font-variant:normal;font-weight:bold;font-stretch:normal;font-size:4.23333311px;line-height:1.25;font-family:Calibri;-inkscape-font-specification:'Calibri Bold';letter-spacing:0px;word-spacing:0px;fill:#000000;fill-opacity:1;stroke:none;stroke-width:0.26458332"
           x="24.404999"
           y="29.551497"
           id="text1508"
           inkscape:export-xdpi="500"
           inkscape:export-ydpi="500"><tspan
             sodipodi:role="line"
             id="tspan1506"
             x="24.404999"
             y="29.551497"
             style="font-style:normal;font-variant:normal;font-weight:bold;font-stretch:normal;font-size:25.39999962px;font-family:'Bookman Old Style';-inkscape-font-specification:'Bookman Old Style Bold';fill:#ffffff;stroke-width:0.26458332">Notes</tspan></text>
        <g
           id="g881"
           transform="matrix(0.05635599,0,0,0.05635599,157.61332,6.6234184)">
	<g
   id="g859">
		<polygon
   id="polygon843"
   points="73.6,439.701 72.895,439.074 72.19,438.29 32.494,398.671 31.867,398.046 97.95,331.961 180.006,414.017 171.785,422.16 115.097,478.926 115.019,478.926 113.923,480.023 113.844,479.945 113.375,479.474 113.297,479.474 "
   style="fill:#fbe6b7" />

		<path
   id="path845"
   d="m 511.439,67.631 c -0.627,2.739 -2.036,5.402 -4.15,7.516 l -35.938,35.937 -7.673,7.673 -4.15,4.15 c -6.264,6.264 -16.599,6.264 -22.941,0 L 412.863,99.183 389.06,75.38 c -6.342,-6.341 -6.342,-16.676 0,-22.941 l 4.15,-4.15 7.673,-7.673 9.552,-9.552 26.308,-26.384 c 2.114,-2.114 4.776,-3.525 7.595,-4.15 5.324,-1.409 11.275,0 15.425,4.15 l 23.724,23.803 23.802,23.722 c 4.15,4.15 5.559,10.1 4.15,15.426 z"
   style="fill:#ffffff"
   inkscape:connector-curvature="0" />

		<polygon
   id="polygon847"
   points="363.692,148.276 322.664,107.248 395.089,34.823 471.351,111.085 477.145,116.88 404.72,189.306 "
   style="fill:#9b6d46" />

		<polygon
   id="polygon849"
   points="486.697,107.248 477.145,116.88 469.472,124.473 463.678,118.757 393.21,48.29 387.416,42.498 404.641,25.271 480.903,101.533 "
   style="fill:#fbf3bd" />

		<polygon
   id="polygon851"
   points="227.845,202.067 322.664,107.248 335.818,94.095 376.846,135.122 417.874,176.072 404.72,189.306 309.901,284.123 180.006,414.017 171.785,422.16 130.835,381.134 89.808,340.105 97.95,331.961 "
   style="fill:#70a745" />

		<path
   id="path853"
   d="m 115.019,478.926 -1.096,0.314 -0.548,0.235 h -0.078 l -72.112,20.907 c -0.078,-0.157 -0.157,-0.237 -0.157,-0.392 -3.132,-6.029 -7.125,-11.745 -12.214,-16.835 -5.089,-5.089 -10.805,-9.16 -16.912,-12.215 -0.078,-0.076 -0.235,-0.076 -0.313,-0.157 l 20.906,-72.112 0.235,-0.703 0.314,-1.097 0.861,0.862 40.165,40.167 1.488,1.487 38.601,38.6 z"
   style="fill:#fbe6b7"
   inkscape:connector-curvature="0" />

		<path
   id="path855"
   d="m 41.654,499.833 -0.626,0.157 -0.078,0.078 -26.543,7.751 -14.407,4.15 4.15,-14.407 7.751,-26.622 0.235,-0.703 c 6.186,3.131 12.058,7.203 17.226,12.372 5.167,5.166 9.239,11.038 12.292,17.224 z"
   style="fill:#595a59"
   inkscape:connector-curvature="0" />

		<polygon
   id="polygon857"
   points="75.557,439.387 73.6,439.701 71.955,440.012 71.877,440.012 72.19,438.29 72.504,436.333 80.803,389.432 33.903,397.732 32.728,397.968 31.945,398.124 31.789,398.124 97.95,331.961 227.845,202.067 309.901,284.123 180.006,414.017 115.097,478.926 113.766,480.258 113.844,479.945 113.923,479.239 114.158,477.987 122.457,431.087 "
   style="fill:#70a745" />

	</g>

	<g
   id="g877">
		<polygon
   id="polygon861"
   points="73.6,439.701 72.895,439.074 72.19,438.29 32.494,398.671 31.867,398.046 97.95,331.961 180.006,414.017 171.785,422.16 115.097,478.926 115.019,478.926 113.923,480.023 113.844,479.945 113.375,479.474 113.297,479.474 "
   style="fill:#fbe6b7" />

		<path
   id="path863"
   d="m 511.439,67.631 c -0.627,2.739 -2.036,5.402 -4.15,7.516 l -35.938,35.937 -7.673,7.673 -4.15,4.15 c -6.264,6.264 -16.599,6.264 -22.941,0 L 412.863,99.183 389.06,75.38 c -6.342,-6.341 -6.342,-16.676 0,-22.941 l 4.15,-4.15 7.673,-7.673 9.552,-9.552 26.308,-26.384 c 2.114,-2.114 4.776,-3.525 7.595,-4.15 5.324,-1.409 11.275,0 15.425,4.15 l 23.724,23.803 23.802,23.722 c 4.15,4.15 5.559,10.1 4.15,15.426 z"
   style="fill:#ffffff"
   inkscape:connector-curvature="0" />

		<polygon
   id="polygon865"
   points="363.692,148.276 322.664,107.248 395.089,34.823 471.351,111.085 477.145,116.88 404.72,189.306 "
   style="fill:#9b6d46" />

		<polygon
   id="polygon867"
   points="486.697,107.248 477.145,116.88 469.472,124.473 463.678,118.757 393.21,48.29 387.416,42.498 404.641,25.271 480.903,101.533 "
   style="fill:#fbf3bd" />

		<polygon
   id="polygon869"
   points="227.845,202.067 322.664,107.248 335.818,94.095 376.846,135.122 417.874,176.072 404.72,189.306 309.901,284.123 180.006,414.017 171.785,422.16 130.835,381.134 89.808,340.105 97.95,331.961 "
   style="fill:#70a745" />

		<path
   id="path871"
   d="m 115.019,478.926 -1.096,0.314 -0.548,0.235 h -0.078 l -72.112,20.907 c -0.078,-0.157 -0.157,-0.237 -0.157,-0.392 -3.132,-6.029 -7.125,-11.745 -12.214,-16.835 -5.089,-5.089 -10.805,-9.16 -16.912,-12.215 -0.078,-0.076 -0.235,-0.076 -0.313,-0.157 l 20.906,-72.112 0.235,-0.703 0.314,-1.097 0.861,0.862 40.165,40.167 1.488,1.487 38.601,38.6 z"
   style="fill:#fbe6b7"
   inkscape:connector-curvature="0" />

		<path
   id="path873"
   d="m 41.654,499.833 -0.626,0.157 -0.078,0.078 -26.543,7.751 -14.407,4.15 4.15,-14.407 7.751,-26.622 0.235,-0.703 c 6.186,3.131 12.058,7.203 17.226,12.372 5.167,5.166 9.239,11.038 12.292,17.224 z"
   style="fill:#595a59"
   inkscape:connector-curvature="0" />

		<polygon
   id="polygon875"
   points="75.557,439.387 73.6,439.701 71.955,440.012 71.877,440.012 72.19,438.29 72.504,436.333 80.803,389.432 33.903,397.732 32.728,397.968 31.945,398.124 31.789,398.124 97.95,331.961 227.845,202.067 309.901,284.123 180.006,414.017 115.097,478.926 113.766,480.258 113.844,479.945 113.923,479.239 114.158,477.987 122.457,431.087 "
   style="fill:#70a745" />

	</g>

	<path
   id="path879"
   d="m 480.94,101.506 26.324,-26.324 c 6.315,-6.315 6.314,-16.646 0,-22.961 L 483.5,28.457 0.016,511.941 40.98,500.053 c 0.056,0.11 0.124,0.215 0.178,0.325 l 72.172,-20.943 0.49,0.49 -0.056,0.317 0.187,-0.187 57.868,-57.868 8.176,-8.176 129.927,-129.927 94.799,-94.799 13.182,-13.182 51.598,-51.598 7.613,-7.613 9.608,-9.608 z"
   style="opacity:0.07999998;fill:#040000"
   inkscape:connector-curvature="0" />

</g>
      </g>
    </g>
  </g>
</svg>
